<svg width="100%" height="100%" viewBox="0 0 119 130" fill="none" xmlns="http://www.w3.org/2000/svg">
<path d="M4.5 59V34L13.75 39M23 100.5V62M13.75 39L23 44V62M13.75 39V70L4.5 78V96.5M23 62L31.5 72.5V110.5L40.5 115.5V58M13.75 81V101.5M31.5 47.5V59M45.5 56.5L50 59V116.5" stroke="#191A23" stroke-width="3"/>
<path d="M10 64C10 66.7614 7.76142 69 5 69C2.23858 69 0 66.7614 0 64C0 61.2386 2.23858 59 5 59C7.76142 59 10 61.2386 10 64ZM2.26416 64C2.26416 65.511 3.48904 66.7358 5 66.7358C6.51096 66.7358 7.73584 65.511 7.73584 64C7.73584 62.489 6.51096 61.2642 5 61.2642C3.48904 61.2642 2.26416 62.489 2.26416 64Z" fill="#191A23"/>
<path d="M28 106C28 108.761 25.7614 111 23 111C20.2386 111 18 108.761 18 106C18 103.239 20.2386 101 23 101C25.7614 101 28 103.239 28 106ZM20.2642 106C20.2642 107.511 21.489 108.736 23 108.736C24.511 108.736 25.7358 107.511 25.7358 106C25.7358 104.489 24.511 103.264 23 103.264C21.489 103.264 20.2642 104.489 20.2642 106Z" fill="#191A23"/>
<path d="M55 121C55 123.761 52.7614 126 50 126C47.2386 126 45 123.761 45 121C45 118.239 47.2386 116 50 116C52.7614 116 55 118.239 55 121ZM47.2642 121C47.2642 122.511 48.489 123.736 50 123.736C51.511 123.736 52.7358 122.511 52.7358 121C52.7358 119.489 51.511 118.264 50 118.264C48.489 118.264 47.2642 119.489 47.2642 121Z" fill="#191A23"/>
<path d="M46 54C46 56.7614 43.7614 59 41 59C38.2386 59 36 56.7614 36 54C36 51.2386 38.2386 49 41 49C43.7614 49 46 51.2386 46 54ZM38.2642 54C38.2642 55.511 39.489 56.7358 41 56.7358C42.511 56.7358 43.7358 55.511 43.7358 54C43.7358 52.489 42.511 51.2642 41 51.2642C39.489 51.2642 38.2642 52.489 38.2642 54Z" fill="#191A23"/>
<path d="M110 48.5L60.5 76V82.5L64.5 85L114 57V66.5L82 85L75.5 98.5M75.5 98.5L60.5 108V117.75M75.5 98.5L110 80M83 116L60.5 127.5V117.75M60.5 117.75L87.5 102.5L100 106.5L115.5 97.5M59 97.5L69 93M115.5 87L98 96.5" stroke="#1F4A7A" stroke-opacity="0.964706" stroke-width="2"/>
<path d="M119 46C119 48.7614 116.761 51 114 51C111.239 51 109 48.7614 109 46C109 43.2386 111.239 41 114 41C116.761 41 119 43.2386 119 46ZM111.264 46C111.264 47.511 112.489 48.7358 114 48.7358C115.511 48.7358 116.736 47.511 116.736 46C116.736 44.489 115.511 43.2642 114 43.2642C112.489 43.2642 111.264 44.489 111.264 46Z" fill="#1F4A7A" fill-opacity="0.964706"/>
<path d="M119 77C119 79.7614 116.761 82 114 82C111.239 82 109 79.7614 109 77C109 74.2386 111.239 72 114 72C116.761 72 119 74.2386 119 77ZM111.264 77C111.264 78.511 112.489 79.7358 114 79.7358C115.511 79.7358 116.736 78.511 116.736 77C116.736 75.489 115.511 74.2642 114 74.2642C112.489 74.2642 111.264 75.489 111.264 77Z" fill="#1F4A7A" fill-opacity="0.964706"/>
<path d="M92 113C92 115.761 89.7614 118 87 118C84.2386 118 82 115.761 82 113C82 110.239 84.2386 108 87 108C89.7614 108 92 110.239 92 113ZM84.2642 113C84.2642 114.511 85.489 115.736 87 115.736C88.511 115.736 89.7358 114.511 89.7358 113C89.7358 111.489 88.511 110.264 87 110.264C85.489 110.264 84.2642 111.489 84.2642 113Z" fill="#1F4A7A" fill-opacity="0.964706"/>
<path d="M65 87C65 89.7614 62.7614 92 60 92C57.2386 92 55 89.7614 55 87C55 84.2386 57.2386 82 60 82C62.7614 82 65 84.2386 65 87ZM57.2642 87C57.2642 88.511 58.489 89.7358 60 89.7358C61.511 89.7358 62.7358 88.511 62.7358 87C62.7358 85.489 61.511 84.2642 60 84.2642C58.489 84.2642 57.2642 85.489 57.2642 87Z" fill="#1F4A7A" fill-opacity="0.964706"/>
<path d="M22 28C22 30.7614 19.7614 33 17 33C14.2386 33 12 30.7614 12 28C12 25.2386 14.2386 23 17 23C19.7614 23 22 25.2386 22 28ZM14.2642 28C14.2642 29.511 15.489 30.7358 17 30.7358C18.511 30.7358 19.7358 29.511 19.7358 28C19.7358 26.489 18.511 25.2642 17 25.2642C15.489 25.2642 14.2642 26.489 14.2642 28Z" fill="#B9FF66"/>
<path d="M49 12C49 14.7614 46.7614 17 44 17C41.2386 17 39 14.7614 39 12C39 9.23858 41.2386 7 44 7C46.7614 7 49 9.23858 49 12ZM41.2642 12C41.2642 13.511 42.489 14.7358 44 14.7358C45.511 14.7358 46.7358 13.511 46.7358 12C46.7358 10.489 45.511 9.26416 44 9.26416C42.489 9.26416 41.2642 10.489 41.2642 12Z" fill="#B9FF66"/>
<path d="M94 17C94 19.7614 91.7614 22 89 22C86.2386 22 84 19.7614 84 17C84 14.2386 86.2386 12 89 12C91.7614 12 94 14.2386 94 17ZM86.2642 17C86.2642 18.511 87.489 19.7358 89 19.7358C90.511 19.7358 91.7358 18.511 91.7358 17C91.7358 15.489 90.511 14.2642 89 14.2642C87.489 14.2642 86.2642 15.489 86.2642 17Z" fill="#B9FF66"/>
<path d="M84 54C84 56.7614 81.7614 59 79 59C76.2386 59 74 56.7614 74 54C74 51.2386 76.2386 49 79 49C81.7614 49 84 51.2386 84 54ZM76.2642 54C76.2642 55.511 77.489 56.7358 79 56.7358C80.511 56.7358 81.7358 55.511 81.7358 54C81.7358 52.489 80.511 51.2642 79 51.2642C77.489 51.2642 76.2642 52.489 76.2642 54Z" fill="#B9FF66"/>
<path d="M21 30L70.5 59L75.5 56.5V51.5L26.5 22L35 17L66.5 36H82.5M82.5 36L49 14.5M82.5 36L96.5 44L105.75 38.5M93 19.5L115 33L105.75 38.5M105.75 38.5L79 22L77 10.5L61 1M51.5 6L70.5 17M79 43L89.5 49.5" stroke="#B9FF66" stroke-width="2"/>
</svg>
